<svg width="34" height="33" viewBox="0 0 34 33" fill="none" xmlns="http://www.w3.org/2000/svg">
<g clip-path="url(#clip0_315_159)">
<path d="M19.659 34L15.8508 27.3652H7.00969C5.15154 27.364 3.36988 26.7695 2.05571 25.7121C0.741533 24.6547 0.00222119 23.2209 0 21.7252V9.96802H8.26791V20.7192H14.3242L21.9434 33.9978L19.659 34Z" fill="#22C6C6"/>
<path d="M26.9931 4.50759e-07H12.2216V6.64606H25.7349V20.7191H20.948L17.137 14.0753H14.8499L22.4831 27.3652H27.0043C28.862 27.3634 30.6429 26.7686 31.9565 25.7113C33.27 24.654 34.009 23.2204 34.0112 21.7252V5.64005C34.009 4.14321 33.2685 2.70832 31.9525 1.65073C30.6365 0.593151 28.8527 -0.000597208 26.9931 4.50759e-07Z" fill="#353572"/>
<path opacity="0.5" d="M7.00969 0C5.15154 0.00119118 3.36988 0.595707 2.05571 1.6531C0.741533 2.71048 0.00222119 4.14438 0 5.64005V6.64606H8.25953V0H7.00969Z" fill="#22C6C6"/>
</g>
<defs>
<clipPath id="clip0_315_159">
<rect width="34" height="34" fill="white"/>
</clipPath>
</defs>
</svg>
