<svg width="207" height="109" viewBox="0 0 207 109" fill="none" xmlns="http://www.w3.org/2000/svg">
<g clip-path="url(#clip0_532_846)">
<path d="M106.548 67.511L100.452 54.3367H86.2869C83.3107 54.3332 80.4574 53.1522 78.3528 51.0527C76.2483 48.9533 75.0645 46.1069 75.0609 43.1378V19.7925H88.3028V41.1402H98.0057L110.217 67.5065L106.548 67.511Z" fill="white"/>
<path d="M118.298 0H94.6324V13.1876H116.301V41.1314H108.636L102.512 27.9349H98.8434L111.055 54.3324H118.298C121.275 54.33 124.13 53.1496 126.235 51.05C128.341 48.9504 129.525 46.1033 129.529 43.1335V11.1945C129.524 8.22546 128.339 5.3795 126.234 3.28089C124.129 1.18229 121.275 0.00236296 118.298 0Z" fill="white"/>
<path opacity="0.7" d="M86.2869 0.000157389C83.3107 0.00370537 80.4574 1.18471 78.3528 3.28416C76.2483 5.3836 75.0645 8.23009 75.0609 11.1992V13.1878H88.2938V-0.00878906L86.2869 0.000157389Z" fill="white"/>
<path d="M4.03167 100.603C4.03737 100.866 3.98591 101.128 3.88074 101.369C3.77557 101.61 3.61925 101.826 3.4225 102.002C3.04026 102.366 2.53112 102.568 2.00248 102.565C1.7391 102.578 1.47576 102.536 1.22926 102.443C0.982762 102.349 0.75837 102.206 0.570222 102.022C0.382073 101.837 0.234289 101.616 0.136146 101.372C0.038004 101.128 -0.00838951 100.866 -1.47541e-05 100.603V82.0081C-0.00567659 81.7474 0.0432069 81.4884 0.143474 81.2475C0.243741 81.0067 0.393213 80.7893 0.582361 80.6093C0.779231 80.4214 1.01187 80.2746 1.26656 80.1779C1.52124 80.0812 1.79282 80.0364 2.06515 80.0462C2.57878 80.0455 3.07178 80.248 3.43595 80.6093C3.62933 80.7867 3.78248 81.0033 3.88523 81.2445C3.98797 81.4857 4.03788 81.7461 4.03167 82.0081V100.603Z" fill="white"/>
<path d="M16.4805 85.0288C18.0753 85.0288 19.2848 85.361 20.1091 86.0254C20.9472 86.7068 21.5466 87.6364 21.8203 88.6799C22.1388 89.8809 22.2895 91.1201 22.2683 92.3622V100.603C22.2762 100.861 22.2318 101.117 22.1379 101.358C22.044 101.598 21.9025 101.817 21.7218 102.002C21.3511 102.363 20.8534 102.565 20.3353 102.565C19.8171 102.565 19.3195 102.363 18.9488 102.002C18.7675 101.817 18.6253 101.598 18.5306 101.358C18.4359 101.118 18.3908 100.861 18.3978 100.603V92.3622C18.4072 91.7144 18.3151 91.069 18.1246 90.4496C17.9531 89.9006 17.609 89.4211 17.1435 89.0821C16.5364 88.7023 15.825 88.5226 15.1098 88.5682C14.3512 88.5427 13.5995 88.7201 12.9327 89.0821C12.3663 89.4047 11.901 89.8782 11.5888 90.4496C11.2706 91.0365 11.1086 91.6951 11.1184 92.3622V100.603C11.1253 100.861 11.0806 101.117 10.9867 101.357C10.8929 101.597 10.7518 101.816 10.5719 102.002C10.2012 102.363 9.7036 102.565 9.18546 102.565C8.66732 102.565 8.16974 102.363 7.79902 102.002C7.61769 101.817 7.47537 101.598 7.3807 101.358C7.28603 101.118 7.24096 100.861 7.24804 100.603V87.3124C7.24096 87.0543 7.28603 86.7974 7.3807 86.5571C7.47537 86.3168 7.61769 86.0979 7.79902 85.9137C8.16974 85.5525 8.66732 85.3504 9.18546 85.3504C9.7036 85.3504 10.2012 85.5525 10.5719 85.9137C10.7518 86.0987 10.8929 86.3178 10.9867 86.558C11.0806 86.7982 11.1253 87.0547 11.1184 87.3124V88.6977L10.6347 88.5994C10.87 88.1783 11.1509 87.7842 11.4723 87.4241C11.8593 86.9891 12.2919 86.5966 12.7625 86.2533C13.2768 85.8768 13.8425 85.5758 14.4424 85.3595C15.0973 85.1317 15.787 85.0198 16.4805 85.0288Z" fill="white"/>
<path d="M24.1901 99.8836C23.965 99.5416 23.8624 99.1337 23.899 98.7262C23.9266 98.469 24.018 98.2227 24.165 98.0097C24.3121 97.7967 24.5102 97.6236 24.7412 97.5062C25.0647 97.2955 25.4491 97.198 25.8342 97.2291C26.2704 97.287 26.6711 97.4996 26.9631 97.8279C27.5385 98.4124 28.2038 98.9012 28.9341 99.2758C29.7431 99.6428 30.6261 99.8187 31.5144 99.7897C31.871 99.7627 32.2256 99.7134 32.5761 99.6422C32.9577 99.5726 33.3109 99.3941 33.593 99.1284C33.7511 98.9654 33.8727 98.7707 33.9499 98.5573C34.0272 98.3439 34.0582 98.1167 34.0409 97.8905C34.0506 97.6785 34.0121 97.4672 33.9283 97.2721C33.8445 97.0771 33.7176 96.9035 33.5571 96.7643C33.1785 96.4554 32.7476 96.2162 32.2848 96.0582C31.7562 95.8616 31.1694 95.6828 30.5244 95.5085C29.8793 95.3343 29.1804 95.1019 28.4771 94.8651C27.8033 94.6479 27.1592 94.3476 26.5598 93.9713C25.9748 93.5909 25.4883 93.0779 25.1398 92.4742C24.7495 91.7538 24.5607 90.9419 24.5933 90.1236C24.5656 89.136 24.8823 88.1694 25.4893 87.3887C26.1118 86.6254 26.9156 86.0294 27.8276 85.6547C28.7803 85.2482 29.8062 85.0398 30.8424 85.0425C31.5479 85.0468 32.2509 85.1277 32.9389 85.2838C33.67 85.4441 34.3755 85.7043 35.0354 86.0569C35.6892 86.3979 36.2621 86.8749 36.7153 87.4556C36.9599 87.795 37.1042 88.196 37.1319 88.6131C37.1451 88.8524 37.0959 89.0909 36.9891 89.3055C36.8823 89.5202 36.7216 89.7035 36.5226 89.8376C36.2052 90.0931 35.7995 90.2136 35.3937 90.1727C34.9967 90.1536 34.6192 89.9954 34.3276 89.7259C33.9363 89.2375 33.4321 88.851 32.8583 88.5997C32.193 88.3117 31.4734 88.17 30.7484 88.1841C30.3961 88.1864 30.0449 88.2239 29.7001 88.2958C29.3346 88.3669 28.9945 88.5335 28.7146 88.7785C28.4337 89.1089 28.2853 89.5313 28.2977 89.9644C28.3101 90.3974 28.4824 90.8107 28.7817 91.1246C29.1631 91.4478 29.6068 91.6896 30.0854 91.8352C30.6364 92.0184 31.2187 92.1927 31.8458 92.3625C32.473 92.5323 33.145 92.7424 33.8125 92.9747C34.4631 93.2045 35.0805 93.5185 35.6491 93.9087C36.2052 94.2995 36.6647 94.8114 36.993 95.4058C37.3603 96.1272 37.5376 96.9299 37.5082 97.7385C37.5353 98.757 37.1914 99.7509 36.5405 100.536C35.8919 101.312 35.0609 101.915 34.1215 102.292C33.1799 102.682 32.1709 102.884 31.1515 102.887C29.8554 102.883 28.5693 102.659 27.3483 102.225C26.0805 101.785 24.9783 100.968 24.1901 99.8836Z" fill="white"/>
<path d="M52.2417 85.351C52.4996 85.3435 52.7563 85.3898 52.9954 85.4867C53.2345 85.5836 53.4508 85.7292 53.6304 85.9141C53.8103 86.0991 53.9513 86.3182 54.0451 86.5584C54.139 86.7986 54.1838 87.0551 54.1769 87.3128V95.4864C54.1769 97.7595 53.5423 99.5605 52.2731 100.889C51.0038 102.218 49.1761 102.884 46.79 102.887C44.4008 102.887 42.579 102.221 41.3247 100.889C40.0704 99.5575 39.4418 97.7566 39.4388 95.4864V87.3128C39.4319 87.0551 39.4767 86.7986 39.5706 86.5584C39.6644 86.3182 39.8054 86.0991 39.9853 85.9141C40.356 85.5529 40.8537 85.3508 41.3719 85.3508C41.89 85.3508 42.3876 85.5529 42.7583 85.9141C42.9396 86.0983 43.0818 86.3172 43.1765 86.5575C43.2712 86.7978 43.3164 87.0547 43.3093 87.3128V95.4864C43.3093 96.7943 43.5989 97.764 44.1783 98.3956C44.7577 99.0272 45.6283 99.3445 46.79 99.3475C47.9845 99.3475 48.867 99.0302 49.4374 98.3956C50.0078 97.761 50.2975 96.7913 50.3064 95.4864V87.3128C50.2994 87.0547 50.3445 86.7978 50.4392 86.5575C50.5339 86.3172 50.6761 86.0983 50.8574 85.9141C51.0358 85.7289 51.2512 85.583 51.4897 85.486C51.7281 85.3891 51.9843 85.343 52.2417 85.351Z" fill="white"/>
<path d="M59.0238 102.565C58.7659 102.572 58.5092 102.526 58.2701 102.429C58.031 102.332 57.8148 102.187 57.6352 102.002C57.4553 101.817 57.3142 101.598 57.2204 101.357C57.1265 101.117 57.0818 100.861 57.0887 100.603V87.3126C57.0818 87.0549 57.1265 86.7984 57.2204 86.5582C57.3142 86.318 57.4553 86.0989 57.6352 85.9138C58.0067 85.5524 58.505 85.3501 59.0238 85.3501C59.5427 85.3501 60.0411 85.5524 60.4126 85.9138C60.5925 86.0989 60.7335 86.318 60.8274 86.5582C60.9212 86.7984 60.966 87.0549 60.9591 87.3126V90.338L60.7351 88.184C60.9632 87.6792 61.2735 87.2157 61.6534 86.8121C62.0269 86.4202 62.4555 86.0845 62.9257 85.8155C63.4016 85.5477 63.9127 85.3476 64.4443 85.2211C64.9723 85.0934 65.5137 85.0289 66.057 85.029C66.6469 85.0109 67.2238 85.2043 67.683 85.5742C67.8853 85.7234 68.0504 85.9171 68.1654 86.1404C68.2804 86.3636 68.3422 86.6103 68.346 86.8612C68.3731 87.1404 68.3382 87.4221 68.2437 87.6863C68.1493 87.9504 67.9976 88.1906 67.7995 88.3896C67.4694 88.68 67.0436 88.8391 66.6035 88.8365C66.221 88.8419 65.8419 88.7641 65.4925 88.6086C65.1234 88.4529 64.7254 88.3768 64.3247 88.3853C63.924 88.3937 63.5297 88.4866 63.1675 88.6577C62.7447 88.8586 62.3715 89.1501 62.0745 89.5113C61.7176 89.9329 61.444 90.4181 61.2681 90.9413C61.05 91.5889 60.9455 92.2692 60.9591 92.9523V100.581C60.966 100.838 60.9212 101.095 60.8274 101.335C60.7335 101.575 60.5925 101.794 60.4126 101.979C60.2349 102.168 60.0196 102.318 59.7804 102.419C59.5412 102.52 59.2835 102.569 59.0238 102.565Z" fill="white"/>
<path d="M71.4727 83.2594C70.933 83.3086 70.3917 83.1849 69.9272 82.9063C69.761 82.7453 69.634 82.5483 69.5564 82.3306C69.4787 82.1128 69.4523 81.8801 69.4793 81.6505V81.0383C69.4498 80.8022 69.4798 80.5625 69.5666 80.3408C69.6535 80.1192 69.7944 79.9227 69.9766 79.7691C70.4433 79.5099 70.9757 79.3919 71.5086 79.4295C72.0596 79.3803 72.6124 79.5037 73.0899 79.7826C73.2553 79.9441 73.3816 80.1412 73.4592 80.3588C73.5368 80.5764 73.5638 80.8088 73.5379 81.0383V81.6505C73.5674 81.8854 73.5386 82.1239 73.4543 82.3452C73.37 82.5664 73.2325 82.7637 73.054 82.9197C72.5717 83.1852 72.0218 83.3033 71.4727 83.2594ZM73.4393 100.603C73.4472 100.861 73.4029 101.118 73.3089 101.358C73.215 101.598 73.0735 101.817 72.8928 102.002C72.5221 102.363 72.0244 102.565 71.5063 102.565C70.9881 102.565 70.4905 102.363 70.1198 102.002C69.9385 101.817 69.7963 101.599 69.7016 101.358C69.6069 101.118 69.5618 100.861 69.5688 100.603V87.3126C69.5618 87.0545 69.6069 86.7976 69.7016 86.5573C69.7963 86.3169 69.9385 86.0981 70.1198 85.9138C70.4905 85.5527 70.9881 85.3505 71.5063 85.3505C72.0244 85.3505 72.5221 85.5527 72.8928 85.9138C73.0735 86.0983 73.215 86.3173 73.3089 86.5576C73.4029 86.798 73.4472 87.0547 73.4393 87.3126V100.603Z" fill="white"/>
<path d="M76.3107 85.6725H83.9575C84.194 85.6683 84.4288 85.7116 84.6481 85.8C84.8674 85.8883 85.0668 86.0198 85.234 86.1867C85.4012 86.3535 85.5331 86.5523 85.6216 86.771C85.7101 86.9898 85.7536 87.2242 85.7493 87.4601C85.7546 87.6908 85.7114 87.9201 85.6227 88.1333C85.534 88.3465 85.4016 88.5388 85.2341 88.698C85.0631 88.8626 84.861 88.9916 84.6395 89.0775C84.418 89.1635 84.1816 89.2046 83.944 89.1985H76.2972C76.0608 89.2027 75.8259 89.1594 75.6066 89.071C75.3873 88.9827 75.188 88.8512 75.0207 88.6844C74.8535 88.5175 74.7217 88.3188 74.6331 88.1C74.5446 87.8812 74.5011 87.6468 74.5054 87.4109C74.499 87.18 74.5416 86.9504 74.6304 86.7371C74.7192 86.5238 74.8522 86.3316 75.0206 86.173C75.1916 86.0084 75.3937 85.8795 75.6152 85.7935C75.8367 85.7076 76.0731 85.6664 76.3107 85.6725ZM79.7645 81.6506C80.02 81.6414 80.2746 81.6869 80.511 81.7841C80.7474 81.8812 80.9603 82.0277 81.1353 82.2136C81.49 82.5918 81.6801 83.0947 81.6638 83.6124V97.9128C81.6549 98.1717 81.7169 98.4282 81.8431 98.6546C81.9545 98.8422 82.1243 98.9882 82.3268 99.0702C82.5364 99.159 82.7622 99.2031 82.9898 99.1998C83.2331 99.2017 83.4742 99.153 83.6976 99.0568C83.9318 98.9544 84.1855 98.904 84.4412 98.9093C84.6003 98.9152 84.7563 98.956 84.8979 99.0286C85.0396 99.1011 85.1635 99.2038 85.261 99.3294C85.4222 99.5335 85.5354 99.7712 85.5922 100.025C85.6489 100.278 85.6478 100.542 85.5889 100.795C85.53 101.048 85.4148 101.285 85.2518 101.487C85.0889 101.69 84.8823 101.854 84.6474 101.966C84.0112 102.35 83.2809 102.551 82.5374 102.547C82.0352 102.544 81.5338 102.507 81.0367 102.435C80.488 102.359 79.9606 102.172 79.4868 101.886C78.9675 101.558 78.549 101.094 78.2773 100.545C77.9172 99.78 77.7452 98.9405 77.7755 98.096V83.6169C77.7707 83.3575 77.8184 83.0999 77.9158 82.8594C78.0131 82.6189 78.1582 82.4004 78.3423 82.2172C78.5264 82.034 78.7456 81.8898 78.9869 81.7932C79.2282 81.6966 79.4866 81.6496 79.7465 81.655L79.7645 81.6506Z" fill="white"/>
<path d="M100.823 85.3509C101.081 85.3434 101.338 85.3896 101.577 85.4866C101.816 85.5835 102.033 85.7291 102.212 85.9139C102.392 86.099 102.533 86.3181 102.627 86.5583C102.721 86.7985 102.766 87.055 102.759 87.3127V100.987C102.759 102.963 102.388 104.534 101.648 105.702C100.944 106.836 99.9002 107.719 98.6642 108.227C97.3311 108.757 95.9063 109.02 94.4713 109C93.7368 108.997 93.0034 108.943 92.2763 108.839C91.6231 108.763 90.9829 108.601 90.3725 108.357C89.8254 108.158 89.3552 107.792 89.0286 107.311C88.9061 107.112 88.8293 106.889 88.8037 106.657C88.7782 106.425 88.8045 106.191 88.8807 105.97C88.9428 105.707 89.0578 105.458 89.2187 105.24C89.3796 105.022 89.5831 104.839 89.8169 104.701C90.0214 104.59 90.2478 104.526 90.48 104.512C90.7122 104.498 90.9445 104.535 91.1608 104.621C91.5042 104.728 91.9522 104.893 92.5047 105.117C93.1214 105.355 93.7788 105.47 94.4399 105.456C95.2809 105.481 96.1188 105.345 96.9082 105.054C97.548 104.8 98.0745 104.324 98.391 103.713C98.7598 102.902 98.9302 102.016 98.8882 101.126V98.9675L99.5691 99.7406C99.2414 100.413 98.7765 101.01 98.2041 101.492C97.6317 101.975 96.9644 102.332 96.2452 102.543C95.4082 102.791 94.538 102.91 93.6649 102.896C92.6161 102.919 91.5821 102.646 90.6815 102.109C89.8277 101.579 89.1401 100.82 88.697 99.9193C88.212 98.9232 87.9696 97.8269 87.9893 96.7197V87.3351C87.9813 87.0772 88.0256 86.8204 88.1195 86.5801C88.2134 86.3397 88.355 86.1208 88.5358 85.9363C88.9065 85.5752 89.4041 85.373 89.9222 85.373C90.4404 85.373 90.9379 85.5752 91.3086 85.9363C91.49 86.1206 91.6323 86.3394 91.727 86.5797C91.8216 86.82 91.8667 87.077 91.8596 87.3351V95.5712C91.8596 96.9654 92.1583 97.9471 92.7556 98.5161C93.4677 99.119 94.3855 99.4248 95.3179 99.3697C95.9804 99.3858 96.636 99.2319 97.2218 98.9228C97.743 98.6259 98.1606 98.1767 98.4179 97.6358C98.7133 96.9837 98.8558 96.273 98.8345 95.5577V87.3217C98.8274 87.0635 98.8726 86.8066 98.9672 86.5663C99.0619 86.3259 99.2041 86.1072 99.3855 85.9229C99.5691 85.7291 99.7929 85.5776 100.041 85.4788C100.29 85.38 100.556 85.3363 100.823 85.3509Z" fill="white"/>
<path d="M126.756 91.3035C126.769 92.8419 126.495 94.3692 125.95 95.8081C125.434 97.1693 124.661 98.4193 123.674 99.4905C122.699 100.553 121.514 101.402 120.193 101.984C118.806 102.592 117.305 102.897 115.79 102.878C114.315 102.896 112.853 102.602 111.5 102.017C110.146 101.432 108.932 100.568 107.937 99.4815C106.95 98.4104 106.177 97.1604 105.661 95.7992C104.586 92.8919 104.586 89.6972 105.661 86.79C106.178 85.428 106.951 84.1767 107.937 83.1031C108.943 82.0252 110.161 81.1655 111.515 80.5777C112.869 79.9899 114.329 79.6865 115.806 79.6865C117.282 79.6865 118.743 79.9899 120.096 80.5777C121.45 81.1655 122.668 82.0252 123.674 83.1031C124.661 84.1767 125.433 85.428 125.95 86.79C126.497 88.2316 126.77 89.7622 126.756 91.3035ZM122.563 91.3035C122.582 89.95 122.283 88.6107 121.69 87.3933C121.151 86.2747 120.33 85.3151 119.306 84.6091C118.257 83.9382 117.037 83.5817 115.79 83.5817C114.543 83.5817 113.323 83.9382 112.273 84.6091C111.253 85.3068 110.435 86.2611 109.904 87.3754C109.34 88.6054 109.048 89.9421 109.048 91.2946C109.048 92.6471 109.34 93.9838 109.904 95.2138C110.432 96.3348 111.25 97.2956 112.273 97.9979C113.323 98.6688 114.543 99.0254 115.79 99.0254C117.037 99.0254 118.257 98.6688 119.306 97.9979C120.33 97.2919 121.151 96.3324 121.69 95.2138C122.286 93.9971 122.588 92.6579 122.572 91.3035H122.563ZM126.886 103.463C127.368 103.498 127.821 103.706 128.159 104.05C128.497 104.394 128.698 104.85 128.723 105.331C128.713 105.597 128.65 105.858 128.536 106.099C128.422 106.339 128.26 106.554 128.06 106.73C127.563 107.211 126.991 107.608 126.366 107.905C125.683 108.248 124.965 108.518 124.225 108.71C123.568 108.891 122.891 108.988 122.209 109C121.132 109.032 120.056 108.907 119.015 108.629C118.329 108.429 117.669 108.149 117.049 107.794C116.529 107.481 116.045 107.204 115.597 106.958C115.088 106.696 114.521 106.569 113.949 106.587C113.609 106.57 113.271 106.643 112.968 106.797C112.723 106.934 112.454 107.073 112.161 107.213C111.778 107.369 111.366 107.441 110.952 107.423C110.697 107.424 110.444 107.37 110.212 107.264C109.98 107.159 109.774 107.004 109.608 106.81C109.26 106.45 109.064 105.97 109.062 105.47C109.033 105.105 109.129 104.741 109.334 104.438C109.539 104.135 109.841 103.909 110.19 103.798L116.865 101.318L119.768 102.029L113.496 104.344L115.333 103.285C116.01 103.271 116.683 103.385 117.317 103.62C117.873 103.841 118.416 104.093 118.944 104.375C119.462 104.656 119.996 104.908 120.543 105.13C121.143 105.367 121.784 105.482 122.429 105.47C122.934 105.485 123.436 105.385 123.898 105.179C124.269 105.002 124.62 104.786 124.946 104.536L125.927 103.781C126.201 103.568 126.539 103.455 126.886 103.459V103.463Z" fill="white"/>
<path d="M141.525 85.3509C141.783 85.3435 142.04 85.3897 142.279 85.4866C142.518 85.5836 142.734 85.7291 142.914 85.914C143.095 86.0985 143.236 86.3175 143.33 86.5578C143.424 86.7982 143.469 87.0549 143.461 87.3127V95.4863C143.461 97.7595 142.827 99.5604 141.561 100.889C140.295 102.218 138.467 102.884 136.078 102.887C133.689 102.887 131.866 102.221 130.609 100.889C129.351 99.5574 128.723 97.7565 128.723 95.4863V87.3127C128.716 87.055 128.761 86.7986 128.854 86.5584C128.948 86.3182 129.089 86.0991 129.269 85.914C129.641 85.5526 130.139 85.3503 130.658 85.3503C131.177 85.3503 131.675 85.5526 132.046 85.914C132.226 86.0991 132.367 86.3182 132.461 86.5584C132.555 86.7986 132.6 87.055 132.593 87.3127V95.4863C132.593 96.7942 132.883 97.7639 133.462 98.3955C134.044 99.0301 134.913 99.3474 136.078 99.3474C137.243 99.3474 138.139 99.0301 138.721 98.3955C139.304 97.761 139.59 96.7957 139.59 95.4863V87.3127C139.583 87.0546 139.628 86.7978 139.723 86.5574C139.818 86.3171 139.96 86.0983 140.141 85.914C140.32 85.729 140.535 85.5834 140.774 85.4864C141.012 85.3894 141.268 85.3433 141.525 85.3509Z" fill="white"/>
<path d="M163.104 93.9758C163.139 95.6027 162.732 97.2087 161.926 98.6234C161.179 99.9262 160.096 101.006 158.79 101.752C157.429 102.49 155.904 102.878 154.355 102.878C152.806 102.878 151.281 102.49 149.92 101.752C148.605 101.01 147.513 99.9294 146.758 98.6234C145.985 97.1949 145.58 95.597 145.58 93.9736C145.58 92.3501 145.985 90.7522 146.758 89.3237C147.517 88.0207 148.608 86.9414 149.92 86.1955C151.277 85.445 152.804 85.0513 154.355 85.0513C155.907 85.0513 157.433 85.445 158.79 86.1955C160.093 86.9447 161.175 88.0238 161.926 89.3237C162.732 90.7398 163.14 92.3474 163.104 93.9758ZM159.234 93.9758C159.258 92.9852 159.032 92.0045 158.575 91.1247C158.156 90.3498 157.538 89.7003 156.783 89.2432C156.037 88.8033 155.186 88.5713 154.319 88.5713C153.453 88.5713 152.602 88.8033 151.856 89.2432C151.099 89.6977 150.48 90.3478 150.064 91.1247C149.605 92.0041 149.377 92.9849 149.401 93.9758C149.38 94.955 149.608 95.9234 150.064 96.7911C150.48 97.568 151.099 98.2181 151.856 98.6726C152.602 99.1125 153.453 99.3445 154.319 99.3445C155.186 99.3445 156.037 99.1125 156.783 98.6726C157.538 98.2155 158.156 97.566 158.575 96.7911C159.029 95.923 159.255 94.9546 159.234 93.9758Z" fill="white"/>
<path d="M165.393 85.6727H173.04C173.276 85.6685 173.511 85.7118 173.731 85.8002C173.95 85.8885 174.149 86.02 174.316 86.1869C174.484 86.3537 174.615 86.5524 174.704 86.7712C174.792 86.99 174.836 87.2244 174.832 87.4603C174.837 87.691 174.794 87.9203 174.705 88.1335C174.616 88.3466 174.484 88.539 174.317 88.6981C174.145 88.8628 173.943 88.9918 173.722 89.0777C173.5 89.1636 173.264 89.2047 173.026 89.1987H165.38C165.143 89.2029 164.908 89.1596 164.689 89.0712C164.47 88.9829 164.27 88.8514 164.103 88.6846C163.936 88.5177 163.804 88.3189 163.716 88.1002C163.627 87.8814 163.584 87.647 163.588 87.4111C163.581 87.1802 163.624 86.9506 163.713 86.7373C163.802 86.524 163.934 86.3317 164.103 86.1732C164.274 86.0086 164.476 85.8796 164.698 85.7937C164.919 85.7078 165.156 85.6666 165.393 85.6727ZM168.847 81.6507C169.102 81.6416 169.357 81.6871 169.593 81.7842C169.83 81.8814 170.043 82.0278 170.218 82.2138C170.572 82.592 170.762 83.0949 170.746 83.6126V97.9129C170.737 98.1719 170.799 98.4283 170.925 98.6548C171.037 98.8424 171.207 98.9884 171.409 99.0704C171.619 99.1592 171.845 99.2033 172.072 99.2C172.316 99.2019 172.557 99.1532 172.78 99.057C173.014 98.9545 173.268 98.9042 173.524 98.9095C173.683 98.9154 173.839 98.9562 173.98 99.0287C174.122 99.1013 174.246 99.204 174.343 99.3296C174.505 99.5337 174.618 99.7714 174.675 100.025C174.731 100.279 174.73 100.542 174.671 100.795C174.612 101.048 174.497 101.285 174.334 101.487C174.171 101.69 173.965 101.854 173.73 101.966C173.094 102.35 172.363 102.551 171.62 102.547C171.118 102.544 170.616 102.507 170.119 102.435C169.57 102.359 169.043 102.172 168.569 101.886C168.05 101.559 167.631 101.095 167.36 100.545C167.001 99.7692 166.835 98.9184 166.876 98.0649V83.5858C166.871 83.3264 166.919 83.0688 167.016 82.8282C167.113 82.5877 167.258 82.3693 167.443 82.1861C167.627 82.0029 167.846 81.8587 168.087 81.7621C168.329 81.6655 168.587 81.6185 168.847 81.624V81.6507Z" fill="white"/>
<path d="M185.068 102.887C183.409 102.929 181.768 102.534 180.31 101.743C179.002 101.014 177.928 99.9292 177.215 98.6146C176.48 97.252 176.108 95.724 176.135 94.177C176.087 92.4634 176.493 90.7675 177.313 89.2612C178.039 87.9618 179.102 86.8813 180.391 86.133C181.613 85.4173 183.005 85.0394 184.423 85.0382C185.497 85.0324 186.56 85.2628 187.536 85.713C188.511 86.1607 189.393 86.7885 190.134 87.5631C190.893 88.3532 191.501 89.2757 191.926 90.2846C192.37 91.321 192.596 92.4376 192.589 93.5648C192.585 93.8061 192.528 94.0437 192.422 94.2607C192.316 94.4777 192.163 94.6688 191.975 94.8205C191.6 95.1372 191.123 95.3084 190.631 95.3032H178.308L177.34 92.0856H189.18L188.468 92.7291V91.8353C188.431 91.2227 188.2 90.6376 187.809 90.164C187.407 89.6685 186.901 89.2673 186.326 88.9887C185.74 88.6957 185.092 88.5427 184.436 88.5418C183.829 88.5383 183.226 88.6241 182.644 88.7965C182.094 88.97 181.595 89.2771 181.193 89.6902C180.749 90.1562 180.418 90.7172 180.225 91.3303C179.966 92.1738 179.846 93.0538 179.871 93.9357C179.839 94.9651 180.09 95.9837 180.597 96.8807C181.034 97.6325 181.662 98.2559 182.418 98.6882C183.174 99.1206 184.031 99.3464 184.902 99.343C185.542 99.3607 186.182 99.2961 186.806 99.1508C187.207 99.057 187.593 98.9065 187.953 98.704C188.239 98.5252 188.504 98.3688 188.741 98.2571C189.079 98.0765 189.455 97.977 189.838 97.9666C190.053 97.9636 190.265 98.003 190.464 98.0824C190.663 98.1619 190.844 98.2797 190.997 98.4293C191.149 98.5789 191.271 98.7571 191.354 98.9539C191.438 99.1506 191.481 99.3618 191.483 99.5754C191.468 99.8901 191.379 100.197 191.223 100.471C191.068 100.745 190.85 100.979 190.587 101.153C189.883 101.703 189.087 102.122 188.235 102.391C187.215 102.736 186.144 102.903 185.068 102.887Z" fill="white"/>
<path d="M193.682 99.8836C193.455 99.5424 193.352 99.1339 193.391 98.7262C193.417 98.4692 193.508 98.2229 193.654 98.0098C193.8 97.7967 193.998 97.6235 194.229 97.5062C194.554 97.2955 194.94 97.1981 195.326 97.2291C195.762 97.2889 196.162 97.5011 196.455 97.8279C197.028 98.413 197.692 98.902 198.422 99.2758C199.231 99.6413 200.114 99.8171 201.002 99.7897C201.36 99.7624 201.716 99.7132 202.068 99.6422C202.448 99.5725 202.8 99.394 203.08 99.1284C203.239 98.9654 203.36 98.7707 203.437 98.5573C203.515 98.3439 203.546 98.1167 203.528 97.8905C203.538 97.6785 203.499 97.4672 203.416 97.2721C203.332 97.0771 203.205 96.9035 203.044 96.7643C202.665 96.4544 202.232 96.2152 201.768 96.0582C201.244 95.8616 200.657 95.6828 200.012 95.5085C199.367 95.3343 198.668 95.1019 197.965 94.8651C197.29 94.6469 196.644 94.3467 196.043 93.9713C195.459 93.5907 194.974 93.0777 194.627 92.4742C194.235 91.7542 194.045 90.9423 194.076 90.1236C194.047 89.1357 194.364 88.1685 194.972 87.3887C195.593 86.6234 196.397 86.0269 197.311 85.6547C198.263 85.2482 199.289 85.0398 200.325 85.0425C201.031 85.0468 201.734 85.1277 202.422 85.2838C203.153 85.4456 203.858 85.7057 204.518 86.0569C205.172 86.3968 205.743 86.874 206.194 87.4556C206.437 87.7958 206.583 88.1962 206.615 88.6131C206.628 88.8528 206.578 89.0918 206.471 89.3065C206.363 89.5213 206.201 89.7043 206.001 89.8376C205.684 90.0931 205.278 90.2136 204.872 90.1727C204.475 90.1525 204.098 89.9944 203.806 89.7259C203.417 89.2366 202.915 88.8499 202.341 88.5997C201.674 88.3118 200.953 88.17 200.227 88.1841C199.875 88.1864 199.523 88.2239 199.179 88.2958C198.814 88.366 198.475 88.5327 198.198 88.7785C197.915 89.108 197.765 89.5302 197.777 89.9635C197.788 90.3969 197.961 90.8106 198.26 91.1246C198.643 91.4487 199.088 91.6906 199.568 91.8352C200.115 92.0184 200.702 92.1927 201.324 92.3625C201.947 92.5323 202.628 92.7424 203.291 92.9747C203.943 93.2045 204.562 93.5185 205.132 93.9087C205.688 94.2995 206.148 94.8114 206.476 95.4058C206.845 96.1264 207.023 96.9297 206.991 97.7385C207.018 98.757 206.674 99.7509 206.024 100.536C205.375 101.312 204.544 101.915 203.604 102.292C202.664 102.681 201.657 102.883 200.639 102.887C199.341 102.882 198.054 102.659 196.831 102.225C195.566 101.784 194.467 100.967 193.682 99.8836Z" fill="white"/>
</g>
<defs>
<clipPath id="clip0_532_846">
<rect width="207" height="109" fill="white"/>
</clipPath>
</defs>
</svg>
