<svg width="212" height="126" viewBox="0 0 212 126" fill="none" xmlns="http://www.w3.org/2000/svg">
<path d="M110.93 79.6482L103.871 64.3586H87.4662C80.2986 64.3586 74.469 58.529 74.469 51.3613V24.2674H89.8001V49.043H101.034L115.172 79.6482H110.93Z" fill="#22C6C6"/>
<path d="M124.534 1.2966H97.1338V16.6122H122.2V49.043H113.321L106.252 33.7326L102.004 33.7222L116.142 64.3585H124.529C131.696 64.3585 137.526 58.529 137.526 51.3613V14.2938C137.531 7.12616 131.701 1.2966 124.534 1.2966Z" fill="#353572"/>
<path opacity="0.5" d="M87.4662 1.2966C80.2986 1.2966 74.469 7.12616 74.469 14.2938V16.6122H89.7897V1.2966H87.4662Z" fill="#22C6C6"/>
<path d="M7.88544 89.9744V115.144H4.63354V89.9744H7.88544Z" fill="#22C6C6"/>
<path d="M12.325 101.96C12.325 100.093 12.2887 98.5631 12.1746 97.0694H15.0893L15.2761 100.057H15.3487C16.2459 98.3401 18.3361 96.6597 21.3234 96.6597C23.8233 96.6597 27.708 98.1534 27.708 104.351V115.144H24.4197V104.725C24.4197 101.81 23.3358 99.3826 20.2395 99.3826C18.0715 99.3826 16.3911 100.913 15.831 102.743C15.6806 103.153 15.608 103.713 15.608 104.273V115.139H12.325V101.96Z" fill="#22C6C6"/>
<path d="M31.1102 111.783C32.0801 112.416 33.7968 113.09 35.4409 113.09C37.8319 113.09 38.9521 111.897 38.9521 110.404C38.9521 108.837 38.0186 107.977 35.5913 107.079C32.3446 105.923 30.8094 104.128 30.8094 101.965C30.8094 99.0507 33.1641 96.6597 37.0435 96.6597C38.8743 96.6597 40.4769 97.1835 41.4883 97.78L40.6688 100.171C39.9583 99.7249 38.6513 99.1233 36.9709 99.1233C35.0312 99.1233 33.9472 100.244 33.9472 101.587C33.9472 103.081 35.0312 103.755 37.3806 104.652C40.5184 105.845 42.1262 107.416 42.1262 110.103C42.1262 113.277 39.6627 115.518 35.3683 115.518C33.3871 115.518 31.5614 115.03 30.2908 114.283L31.1102 111.783Z" fill="#22C6C6"/>
<path d="M59.9782 110.217C59.9782 112.084 60.0145 113.728 60.1286 115.144H57.2138L57.0271 112.193H56.9545C56.0935 113.65 54.1901 115.554 50.9797 115.554C48.1427 115.554 44.7456 113.988 44.7456 107.634V97.0642H48.0338V107.074C48.0338 110.513 49.0815 112.826 52.0689 112.826C54.2731 112.826 55.8031 111.296 56.3995 109.838C56.5863 109.351 56.7004 108.754 56.7004 108.158V97.0642H59.9886V110.217H59.9782Z" fill="#22C6C6"/>
<path d="M63.9353 102.707C63.9353 100.581 63.899 98.7498 63.7849 97.0694H66.6582L66.7723 100.617H66.9227C67.7422 98.1897 69.7234 96.6597 71.9276 96.6597C72.3011 96.6597 72.5604 96.696 72.8612 96.7738V99.8753C72.5241 99.8027 72.1869 99.7612 71.7409 99.7612C69.4278 99.7612 67.7837 101.514 67.3324 103.983C67.2598 104.429 67.182 104.953 67.182 105.513V115.149H63.9353V102.707Z" fill="#22C6C6"/>
<path d="M78.4573 91.9919C78.4936 93.1121 77.6742 94.0094 76.3672 94.0094C75.2106 94.0094 74.386 93.1121 74.386 91.9919C74.386 90.8353 75.2469 89.938 76.4398 89.938C77.6742 89.938 78.4573 90.8353 78.4573 91.9919ZM74.8009 115.144V97.0694H78.0891V115.144H74.8009Z" fill="#22C6C6"/>
<path d="M86.0036 91.8778V97.0694H90.7077V99.5693H86.0036V109.315C86.0036 111.555 86.6363 112.826 88.4671 112.826C89.3281 112.826 89.9608 112.712 90.3706 112.603L90.521 115.066C89.8882 115.326 88.8769 115.512 87.6062 115.512C86.0762 115.512 84.8418 115.025 84.0587 114.133C83.1251 113.163 82.788 111.555 82.788 109.429V99.5693H79.9873V97.0694H82.788V92.7387L86.0036 91.8778Z" fill="#22C6C6"/>
<path d="M94.442 97.0694L98.3993 107.748C98.809 108.941 99.2602 110.362 99.5559 111.446H99.6285C99.9656 110.362 100.339 108.983 100.785 107.676L104.369 97.0694H107.844L102.917 109.953C100.562 116.15 98.9594 119.324 96.7189 121.269C95.1111 122.69 93.5085 123.251 92.6838 123.396L91.8644 120.631C92.6838 120.372 93.7678 119.848 94.7377 119.024C95.6349 118.313 96.7552 117.042 97.502 115.362C97.6524 115.025 97.7614 114.766 97.7614 114.579C97.7614 114.392 97.6888 114.133 97.5384 113.718L90.853 97.0642H94.442V97.0694Z" fill="#22C6C6"/>
<path d="M130.218 118.842C126.821 117.945 123.496 116.939 120.582 115.927C120.058 115.741 119.534 115.554 119.052 115.554C113.077 115.331 107.958 110.922 107.958 102.821C107.958 94.7563 112.885 89.5646 119.684 89.5646C126.52 89.5646 130.965 94.8652 130.965 102.297C130.965 108.76 127.977 112.904 123.792 114.361V114.511C126.292 115.144 129.02 115.746 131.146 116.119L130.218 118.842ZM127.526 102.448C127.526 97.4065 124.912 92.2149 119.57 92.2149C114.083 92.2149 111.391 97.2924 111.427 102.749C111.391 108.091 114.342 112.909 119.42 112.909C124.617 112.904 127.526 108.2 127.526 102.448Z" fill="#353572"/>
<path d="M148.811 110.217C148.811 112.084 148.848 113.728 148.962 115.144H146.047L145.86 112.193H145.788C144.927 113.65 143.023 115.554 139.813 115.554C136.976 115.554 133.574 113.988 133.574 107.634V97.0642H136.862V107.074C136.862 110.513 137.91 112.826 140.897 112.826C143.101 112.826 144.631 111.296 145.228 109.838C145.414 109.351 145.528 108.754 145.528 108.158V97.0642H148.817V110.217H148.811Z" fill="#353572"/>
<path d="M169.127 105.959C169.127 112.644 164.495 115.559 160.128 115.559C155.237 115.559 151.462 111.975 151.462 106.26C151.462 100.207 155.419 96.6597 160.424 96.6597C165.615 96.6597 169.127 100.43 169.127 105.959ZM154.786 106.146C154.786 110.103 157.063 113.09 160.273 113.09C163.411 113.09 165.761 110.139 165.761 106.068C165.761 103.003 164.231 99.1233 160.346 99.1233C156.467 99.1233 154.786 102.707 154.786 106.146Z" fill="#353572"/>
<path d="M175.734 91.8778V97.0694H180.438V99.5693H175.734V109.315C175.734 111.555 176.367 112.826 178.198 112.826C179.059 112.826 179.692 112.712 180.101 112.603L180.252 115.066C179.619 115.326 178.608 115.512 177.337 115.512C175.807 115.512 174.573 115.025 173.789 114.133C172.856 113.163 172.519 111.555 172.519 109.429V99.5693H169.718V97.0694H172.519V92.7387L175.734 91.8778Z" fill="#353572"/>
<path d="M184.25 106.706C184.323 111.151 187.165 112.981 190.448 112.981C192.803 112.981 194.219 112.572 195.453 112.048L196.013 114.403C194.857 114.926 192.875 115.523 190.002 115.523C184.437 115.523 181.113 111.861 181.113 106.41C181.113 100.959 184.323 96.6649 189.592 96.6649C195.495 96.6649 197.061 101.857 197.061 105.181C197.061 105.855 196.988 106.374 196.947 106.711H184.25V106.706ZM193.882 104.351C193.918 102.261 193.021 99.0092 189.323 99.0092C185.998 99.0092 184.541 102.069 184.281 104.351H193.882Z" fill="#353572"/>
<path d="M199.187 111.783C200.157 112.416 201.874 113.09 203.518 113.09C205.909 113.09 207.029 111.897 207.029 110.404C207.029 108.837 206.096 107.977 203.668 107.079C200.422 105.923 198.887 104.128 198.887 101.965C198.887 99.0507 201.241 96.6597 205.126 96.6597C206.957 96.6597 208.559 97.1835 209.571 97.78L208.751 100.171C208.041 99.7249 206.734 99.1233 205.053 99.1233C203.114 99.1233 202.03 100.244 202.03 101.587C202.03 103.081 203.114 103.755 205.463 104.652C208.601 105.845 210.203 107.416 210.203 110.103C210.203 113.277 207.74 115.518 203.445 115.518C201.464 115.518 199.639 115.03 198.368 114.283L199.187 111.783Z" fill="#353572"/>
</svg>
